<svg xmlns="http://www.w3.org/2000/svg" viewBox="0 0 350 72" role="img" aria-labelledby="title desc">
  <title id="title">Masterbelt monochrome logo</title>
  <desc id="desc">A one-color Masterbelt logo with M monogram and single belt line.</desc>
  <g fill="currentColor">
    <g transform="translate(4 4)">
      <path d="M9 52V12h10l13 17 13-17h10v40H44V28L34 42h-4L20 28v24H9Z"/>
      <path d="M8 29h48v6H8z"/>
      <rect width="9" height="12" x="27.5" y="26" rx="2"/>
    </g>
    <g transform="translate(84 20)">
      <path d="M0 32V0h7l8.2 16.1L23.4 0h7v32h-6.5V11.9l-6.5 12.7h-4.5L6.5 11.9V32H0Z"/>
      <path d="M48.4 32c-7.4 0-12.9-5.2-12.9-12.2S41 7.6 48.4 7.6c3.3 0 6.3 1.2 8.4 3.2V8.2h6.4V32h-6.4v-2.7c-2.1 1.7-5 2.7-8.4 2.7Zm1-5.7c4.5 0 7.6-2.6 7.6-6.5s-3.1-6.5-7.6-6.5-7.5 2.6-7.5 6.5 3 6.5 7.5 6.5Z"/>
      <path d="M78.3 32.5c-4.5 0-8.5-1.1-11.3-3.2l2.6-5c2.5 1.8 5.8 2.8 8.8 2.8 2.7 0 4.2-.7 4.2-2 0-1.5-1.7-1.8-5.4-2.4-5.8-.9-9.2-2.6-9.2-7.3 0-4.8 4.3-7.8 10.6-7.8 3.8 0 7.2.9 9.8 2.6L86 15.1c-2.2-1.3-5-2.1-7.5-2.1-2.6 0-4.1.7-4.1 2 0 1.4 1.6 1.7 5.2 2.3 5.9.9 9.5 2.7 9.5 7.4 0 4.9-4.2 7.8-10.8 7.8Z"/>
      <path d="M105.3 32c-5.9 0-9.3-3.3-9.3-9.1v-9.5h-5.1V8.2H96V1.6h6.5v6.6h7.2v5.2h-7.2v8.8c0 2.7 1.3 4 3.9 4 1.2 0 2.4-.2 3.4-.7v5.7c-1.2.5-2.8.8-4.5.8Z"/>
      <path d="M125.6 32.5c-7.8 0-13.3-5.1-13.3-12.4 0-7.5 5.3-12.5 12.8-12.5 7.3 0 12.2 4.8 12.2 11.9 0 .8 0 1.7-.2 2.5h-18.4c.8 3.3 3.4 5.1 7.3 5.1 2.6 0 4.8-.8 6.6-2.3l3.4 4.1c-2.6 2.4-6 3.6-10.4 3.6Zm-6.8-14.9h12.4c-.5-3-2.8-4.9-6-4.9-3.4 0-5.7 1.8-6.4 4.9Z"/>
      <path d="M141.8 32V8.2h6.4v3.2c1.7-2.4 4.4-3.7 7.8-3.7h1.1v6.2h-1.6c-4.6 0-7.2 2.5-7.2 6.9V32h-6.5Z"/>
      <path d="M174.8 32c-3.4 0-6.3-1-8.4-2.7V32H160V0h6.5v10.8c2.1-2 5-3.2 8.4-3.2 7.4 0 12.8 5.2 12.8 12.2S182.2 32 174.8 32Zm-1-5.7c4.5 0 7.5-2.6 7.5-6.5s-3-6.5-7.5-6.5-7.6 2.6-7.6 6.5 3.1 6.5 7.6 6.5Z"/>
      <path d="M204.3 32.5c-7.8 0-13.3-5.1-13.3-12.4 0-7.5 5.3-12.5 12.8-12.5 7.3 0 12.2 4.8 12.2 11.9 0 .8 0 1.7-.2 2.5h-18.4c.8 3.3 3.4 5.1 7.3 5.1 2.6 0 4.8-.8 6.6-2.3l3.4 4.1c-2.6 2.4-6 3.6-10.4 3.6Zm-6.8-14.9h12.4c-.5-3-2.8-4.9-6-4.9-3.4 0-5.7 1.8-6.4 4.9Z"/>
      <path d="M220.6 32V0h6.5v32h-6.5Z"/>
      <path d="M245.2 32c-5.9 0-9.3-3.3-9.3-9.1v-9.5h-5.1V8.2h5.1V1.6h6.5v6.6h7.2v5.2h-7.2v8.8c0 2.7 1.3 4 3.9 4 1.2 0 2.4-.2 3.4-.7v5.7c-1.2.5-2.8.8-4.5.8Z"/>
    </g>
  </g>
</svg>
